<mxfile host="app.diagrams.net" modified="2024-03-26T06:14:52.337Z" agent="Mozilla/5.0 (X11; Linux x86_64) AppleWebKit/537.36 (KHTML, like Gecko) Chrome/125.0.0.0 Safari/537.36" version="24.1.0" etag="yBDDEftME_GOWU38qhw8" type="github">
  <diagram name="Page-1" id="AjidBxEbOnLKUObbBo-6">
    <mxGraphModel>
      <root>
        <mxCell id="0" />
        <mxCell id="1" parent="0" />
      </root>
    </mxGraphModel>
  </diagram>
</mxfile>
